<svg width="14" height="14" viewBox="0 0 14 14" fill="none" xmlns="http://www.w3.org/2000/svg">
<path d="M13.6412 2.19149L11.8224 0.371924C11.69 0.245128 11.533 0.146874 11.3611 0.0832456C11.1892 0.0196168 11.0061 -0.00803207 10.8231 0.00201109C10.0389 0.0656223 9.30741 0.422601 8.77454 1.00178L0.959989 8.80993C0.703024 9.05247 0.531273 9.37158 0.47033 9.71972L0.0206435 13.1989C-0.00484934 13.2968 -0.00675941 13.3994 0.0150702 13.4982C0.0368998 13.597 0.0818464 13.6893 0.146219 13.7673C0.210592 13.8454 0.292555 13.9071 0.385377 13.9473C0.4782 13.9875 0.579234 14.0051 0.680184 13.9987H0.820086L4.29766 13.5588C4.64564 13.4978 4.96461 13.326 5.20703 13.0689L13.0116 5.24077C14.0109 4.23101 14.3107 2.86134 13.6412 2.19149ZM4.14777 11.9992L4.06782 12.0592L1.64951 12.3691L1.95929 9.99965L2.01925 9.86968L7.71528 4.17103L9.8438 6.30052L4.14777 11.9992ZM12.0123 4.18102L10.9031 5.24077L8.77454 3.11128L9.8338 2.05153C10.0951 1.76043 10.4474 1.56658 10.8331 1.50166L12.5119 3.18126C12.4584 3.55999 12.283 3.91096 12.0123 4.18102Z" fill="black"/>
</svg>
