<svg width="14" height="14" viewBox="0 0 14 14" fill="none" xmlns="http://www.w3.org/2000/svg">
<path d="M7.00011 3.71L7.49011 5.3L7.81011 6.36H10.7301L9.19011 7.54L8.37011 8.17L8.67011 9.17L9.21011 10.93L7.91011 9.93L7.00011 9.22999L6.09011 9.93L4.79011 10.93L5.33011 9.17L5.63011 8.17L4.81011 7.54L3.27011 6.36H6.19011L6.51011 5.3L7.00011 3.71ZM7.00011 -4.75226e-06C6.87504 -0.00118334 6.75294 0.038101 6.65202 0.111989C6.5511 0.185877 6.47677 0.29041 6.44011 0.409995L5.08011 4.86H0.590111C0.479712 4.8715 0.374799 4.91392 0.287423 4.98237C0.200047 5.05082 0.133753 5.14254 0.0961558 5.24697C0.058559 5.35141 0.0511848 5.46433 0.0748802 5.57277C0.0985756 5.68121 0.15238 5.78076 0.230111 5.86L3.89011 8.72999L2.51011 13.25C2.48338 13.3372 2.47758 13.4294 2.49318 13.5192C2.50878 13.6091 2.54534 13.694 2.59989 13.767C2.65444 13.8401 2.72544 13.8993 2.80714 13.9397C2.88885 13.9802 2.97894 14.0009 3.07011 14C3.19627 13.9966 3.31838 13.9547 3.42011 13.88L7.00011 11.12L10.5801 13.87C10.6776 13.9536 10.8017 13.9997 10.9301 14C11.0217 13.9992 11.1119 13.9771 11.1934 13.9355C11.275 13.8938 11.3458 13.8337 11.4001 13.76C11.4545 13.6863 11.4909 13.6009 11.5065 13.5106C11.5221 13.4204 11.5165 13.3277 11.4901 13.24L10.1101 8.72999L13.7701 5.91C13.8478 5.83076 13.9016 5.73121 13.9253 5.62277C13.949 5.51433 13.9417 5.40141 13.9041 5.29697C13.8665 5.19254 13.8002 5.10082 13.7128 5.03237C13.6254 4.96392 13.5205 4.9215 13.4101 4.91H8.92011L7.56011 0.409995C7.52346 0.29041 7.44913 0.185877 7.34821 0.111989C7.24728 0.038101 7.12518 -0.00118334 7.00011 -4.75226e-06Z" fill="black"/>
</svg>
