<svg width="14" height="14" viewBox="0 0 14 14" fill="none" xmlns="http://www.w3.org/2000/svg">
<path d="M5.55577 10.5223C5.43189 10.5257 5.31122 10.4826 5.21739 10.4015C5.12357 10.3204 5.06334 10.2071 5.04852 10.0839V6.09815C5.04852 5.96601 5.10091 5.83929 5.19417 5.74586C5.28744 5.65242 5.41393 5.59993 5.54582 5.59993C5.67771 5.59993 5.8042 5.65242 5.89747 5.74586C5.99073 5.83929 6.04312 5.96601 6.04312 6.09815V10.0839C6.03077 10.2045 5.97402 10.3163 5.88393 10.3973C5.79383 10.4784 5.67685 10.5229 5.55577 10.5223ZM9.02695 10.0839V6.09815C9.02695 5.96601 8.97456 5.83929 8.8813 5.74586C8.78803 5.65242 8.66154 5.59993 8.52965 5.59993C8.39776 5.59993 8.27126 5.65242 8.178 5.74586C8.08474 5.83929 8.03234 5.96601 8.03234 6.09815V10.0839C8.03233 10.1488 8.04526 10.2131 8.07037 10.273C8.09548 10.3329 8.13227 10.3872 8.17859 10.4327C8.2249 10.4782 8.27981 10.5139 8.34009 10.5379C8.40037 10.5618 8.46482 10.5734 8.52965 10.5721C8.65984 10.5721 8.78484 10.521 8.87783 10.4297C8.97081 10.3384 9.02435 10.2143 9.02695 10.0839ZM14 3.9359C13.9974 4.13237 13.9176 4.3199 13.778 4.4579C13.6384 4.59591 13.4502 4.67327 13.254 4.67325H12.7567L11.1853 13.1927C11.1408 13.423 11.0167 13.6302 10.8348 13.7779C10.6528 13.9255 10.4247 14.0041 10.1906 13.9998H3.90471C3.67062 14.0041 3.44253 13.9255 3.2606 13.7779C3.07867 13.6302 2.95455 13.423 2.91011 13.1927L1.34857 4.62343H0.821426C0.718265 4.63551 0.613721 4.62557 0.514666 4.59428C0.415611 4.56299 0.324289 4.51105 0.246702 4.44187C0.169116 4.3727 0.107022 4.28785 0.064502 4.19292C0.0219824 4.09798 0 3.99511 0 3.89106C0 3.787 0.0219824 3.68413 0.064502 3.5892C0.107022 3.49426 0.169116 3.40942 0.246702 3.34024C0.324289 3.27107 0.415611 3.21913 0.514666 3.18783C0.613721 3.15654 0.718265 3.14661 0.821426 3.15868H3.86493C3.92126 2.33616 4.27417 1.56222 4.85791 0.981083C5.44165 0.399945 6.21638 0.0512568 7.03773 0C7.86085 0.048925 8.63798 0.396583 9.22378 0.977947C9.80957 1.55931 10.1639 2.33456 10.2205 3.15868H13.2043C13.305 3.15047 13.4064 3.16312 13.502 3.19585C13.5976 3.22858 13.6855 3.28069 13.7601 3.34893C13.8348 3.41717 13.8946 3.50008 13.9359 3.59249C13.9771 3.68491 13.999 3.78484 14 3.88608V3.9359ZM11.235 4.69318H2.87032L4.3125 12.4753H9.7928L11.235 4.69318ZM5.36679 3.15868H8.73852C8.6963 2.72209 8.50329 2.31395 8.19279 2.0047C7.88228 1.69545 7.47377 1.50448 7.03773 1.46475C6.60705 1.51101 6.20553 1.70486 5.90106 2.01351C5.59659 2.32217 5.40787 2.72669 5.36679 3.15868Z" fill="black"/>
</svg>
